<svg width="80" height="80" viewBox="0 0 80 80" fill="none" xmlns="http://www.w3.org/2000/svg">
<path d="M48.7347 57.1965C49.0361 56.8959 49.2753 56.5389 49.4386 56.1458C49.6019 55.7527 49.686 55.3313 49.6862 54.9056C49.6864 54.48 49.6026 54.0585 49.4397 53.6652C49.2768 53.272 49.0379 52.9148 48.7368 52.614L36.1325 39.9982L48.7482 27.394C49.3562 26.7866 49.6979 25.9625 49.6983 25.1031C49.6987 24.2438 49.3577 23.4194 48.7503 22.8115C48.1429 22.2035 47.3189 21.8617 46.4595 21.8614C45.6001 21.861 44.7757 22.202 44.1678 22.8094L29.2435 37.7201C28.9421 38.0207 28.7029 38.3777 28.5396 38.7708C28.3764 39.1639 28.2922 39.5853 28.2921 40.0109C28.2919 40.4366 28.3756 40.8581 28.5385 41.2513C28.7014 41.6446 28.9403 42.0018 29.2415 42.3026L44.1522 57.2269C45.3866 58.4624 47.4666 58.4634 48.7347 57.1965Z" fill="white"/>
</svg>
